<mxfile host="app.diagrams.net" agent="Mozilla/5.0 (Macintosh; Intel Mac OS X 10_15_7) AppleWebKit/537.36 (KHTML, like Gecko) Chrome/134.0.0.0 Safari/537.36" version="27.1.5">
  <diagram name="Page-1" id="SEY4Gid4OYCtWmyCrpxo">
    <mxGraphModel dx="968" dy="562" grid="1" gridSize="10" guides="1" tooltips="1" connect="1" arrows="0" fold="1" page="1" pageScale="1" pageWidth="850" pageHeight="1100" background="none" math="0" shadow="0">
      <root>
        <mxCell id="0" />
        <mxCell id="1" parent="0" />
        <mxCell id="oEzC_7prSdUzx3_McUr0-1" value="" style="rounded=0;whiteSpace=wrap;html=1;fillColor=none;dashed=1;strokeColor=#989898;dashPattern=1 2;" vertex="1" parent="1">
          <mxGeometry x="24.24" y="100" width="125.76" height="510" as="geometry" />
        </mxCell>
        <mxCell id="oEzC_7prSdUzx3_McUr0-4" value="Sources" style="rounded=0;whiteSpace=wrap;html=1;dashed=1;dashPattern=1 2;strokeColor=#36393d;fontSize=20;fontStyle=1;fillColor=#cce5ff;" vertex="1" parent="1">
          <mxGeometry x="29.240000000000002" y="90" width="110" height="30" as="geometry" />
        </mxCell>
        <mxCell id="oEzC_7prSdUzx3_McUr0-5" value="" style="rounded=0;whiteSpace=wrap;html=1;fillColor=default;dashed=1;strokeColor=#989898;dashPattern=1 2;" vertex="1" parent="1">
          <mxGeometry x="170" y="100" width="490" height="510" as="geometry" />
        </mxCell>
        <mxCell id="oEzC_7prSdUzx3_McUr0-8" value="Data warehouse" style="rounded=0;whiteSpace=wrap;html=1;dashed=1;dashPattern=1 2;strokeColor=#36393d;fontSize=20;fontStyle=1;fillColor=#cce5ff;" vertex="1" parent="1">
          <mxGeometry x="310" y="90" width="210" height="40" as="geometry" />
        </mxCell>
        <mxCell id="oEzC_7prSdUzx3_McUr0-9" value="&lt;span style=&quot;color: rgba(0, 0, 0, 0); font-family: monospace; font-size: 0px; text-align: start; text-wrap-mode: nowrap;&quot;&gt;%3CmxGraphModel%3E%3Croot%3E%3CmxCell%20id%3D%220%22%2F%3E%3CmxCell%20id%3D%221%22%20parent%3D%220%22%2F%3E%3CmxCell%20id%3D%222%22%20value%3D%22Ad-hoc%20SQL%20Queries%22%20style%3D%22text%3Bhtml%3D1%3Balign%3Dcenter%3BverticalAlign%3Dmiddle%3BwhiteSpace%3Dwrap%3Brounded%3D0%3B%22%20vertex%3D%221%22%20parent%3D%221%22%3E%3CmxGeometry%20x%3D%22725%22%20y%3D%22210%22%20width%3D%2285%22%20height%3D%2220%22%20as%3D%22geometry%22%2F%3E%3C%2FmxCell%3E%3C%2Froot%3E%3C%2FmxGraphModel%3E&lt;/span&gt;" style="rounded=0;whiteSpace=wrap;html=1;fillColor=none;dashed=1;strokeColor=#989898;dashPattern=1 2;" vertex="1" parent="1">
          <mxGeometry x="690" y="120" width="140" height="490" as="geometry" />
        </mxCell>
        <mxCell id="oEzC_7prSdUzx3_McUr0-10" value="Consume" style="rounded=0;whiteSpace=wrap;html=1;dashed=1;dashPattern=1 2;strokeColor=#36393d;fontSize=20;fontStyle=1;fillColor=#cce5ff;" vertex="1" parent="1">
          <mxGeometry x="700" y="90" width="110" height="30" as="geometry" />
        </mxCell>
        <mxCell id="oEzC_7prSdUzx3_McUr0-11" value="" style="rounded=0;whiteSpace=wrap;html=1;fillColor=none;strokeColor=#d79b00;" vertex="1" parent="1">
          <mxGeometry x="180" y="170" width="140" height="430" as="geometry" />
        </mxCell>
        <mxCell id="oEzC_7prSdUzx3_McUr0-12" value="Bronze Layer" style="rounded=0;whiteSpace=wrap;html=1;fontStyle=1;fillColor=#ffe6cc;strokeColor=#d79b00;" vertex="1" parent="1">
          <mxGeometry x="190" y="160" width="120" height="30" as="geometry" />
        </mxCell>
        <mxCell id="oEzC_7prSdUzx3_McUr0-13" value="" style="rounded=0;whiteSpace=wrap;html=1;fillColor=none;strokeColor=#d6b656;" vertex="1" parent="1">
          <mxGeometry x="330" y="170" width="150" height="430" as="geometry" />
        </mxCell>
        <mxCell id="oEzC_7prSdUzx3_McUr0-14" value="Silver Layer" style="rounded=0;whiteSpace=wrap;html=1;fontStyle=1;fillColor=#f5f5f5;strokeColor=#666666;fontColor=#333333;" vertex="1" parent="1">
          <mxGeometry x="340" y="160" width="120" height="30" as="geometry" />
        </mxCell>
        <mxCell id="oEzC_7prSdUzx3_McUr0-15" value="&lt;span style=&quot;color: rgba(0, 0, 0, 0); font-family: monospace; font-size: 0px; text-align: start; text-wrap-mode: nowrap;&quot;&gt;%3CmxGraphModel%3E%3Croot%3E%3CmxCell%20id%3D%220%22%2F%3E%3CmxCell%20id%3D%221%22%20parent%3D%220%22%2F%3E%3CmxCell%20id%3D%222%22%20value%3D%22Load%3A%26amp%3Bnbsp%3B%26lt%3Bdiv%26gt%3B%26amp%3Bnbsp%3B-%20Batch%20Processing%26lt%3B%2Fdiv%26gt%3B%26lt%3Bdiv%26gt%3B%26lt%3Bspan%20style%3D%26quot%3Bbackground-color%3A%20transparent%3B%20color%3A%20light-dark(rgb(0%2C%200%2C%200)%2C%20rgb(255%2C%20255%2C%20255))%3B%26quot%3B%26gt%3B-%20Full%20Load%26lt%3B%2Fspan%26gt%3B%26lt%3B%2Fdiv%26gt%3B%26lt%3Bdiv%26gt%3B-%20Truncate%20%26amp%3Bamp%3B%20Insert%26lt%3B%2Fdiv%26gt%3B%26lt%3Bdiv%26gt%3B%26lt%3Bbr%26gt%3B%26lt%3B%2Fdiv%26gt%3B%26lt%3Bdiv%26gt%3BTransformations%3A%26amp%3Bnbsp%3B%26lt%3B%2Fdiv%26gt%3B%26lt%3Bdiv%26gt%3B-%20Data%20cleansing%26lt%3B%2Fdiv%26gt%3B%26lt%3Bdiv%26gt%3B-%20Data%20Standardization%26lt%3B%2Fdiv%26gt%3B%26lt%3Bdiv%26gt%3B-%20Data%20Normalization%26lt%3B%2Fdiv%26gt%3B%26lt%3Bdiv%26gt%3B-Derived%20Columns%26lt%3B%2Fdiv%26gt%3B%26lt%3Bdiv%26gt%3B-%20Data%20Enrichment%26lt%3B%2Fdiv%26gt%3B%26lt%3Bdiv%26gt%3B%26lt%3Bbr%26gt%3B%26lt%3B%2Fdiv%26gt%3B%26lt%3Bdiv%26gt%3BData%20Model%3ANone%20(as-is)%26lt%3B%2Fdiv%26gt%3B%26lt%3Bdiv%26gt%3B%26lt%3Bbr%26gt%3B%26lt%3B%2Fdiv%26gt%3B%26lt%3Bdiv%26gt%3B%26lt%3Bbr%26gt%3B%26lt%3B%2Fdiv%26gt%3B%26lt%3Bdiv%26gt%3B%26lt%3Bbr%26gt%3B%26lt%3B%2Fdiv%26gt%3B%26lt%3Bdiv%26gt%3B%26lt%3Bbr%26gt%3B%26lt%3B%2Fdiv%26gt%3B%26lt%3Bdiv%26gt%3B%26lt%3Bbr%26gt%3B%26lt%3B%2Fdiv%26gt%3B%26lt%3Bdiv%26gt%3B%26lt%3Bbr%26gt%3B%26lt%3B%2Fdiv%26gt%3B%26lt%3Bdiv%26gt%3B%26lt%3Bbr%26gt%3B%26lt%3B%2Fdiv%26gt%3B%26lt%3Bdiv%26gt%3B%26amp%3Bnbsp%3B%26amp%3Bnbsp%3B%26lt%3B%2Fdiv%26gt%3B%22%20style%3D%22text%3Bhtml%3D1%3Balign%3Dcenter%3BverticalAlign%3Dmiddle%3BwhiteSpace%3Dwrap%3Brounded%3D0%3B%22%20vertex%3D%221%22%20parent%3D%221%22%3E%3CmxGeometry%20x%3D%22340%22%20y%3D%22470%22%20width%3D%22130%22%20height%3D%22130%22%20as%3D%22geometry%22%2F%3E%3C%2FmxCell%3E%3C%2Froot%3E%3C%2FmxGraphModel%3E&lt;/span&gt;" style="rounded=0;whiteSpace=wrap;html=1;fillColor=none;strokeColor=#666666;fontColor=#333333;" vertex="1" parent="1">
          <mxGeometry x="490" y="170" width="150" height="430" as="geometry" />
        </mxCell>
        <mxCell id="oEzC_7prSdUzx3_McUr0-16" value="Gold Layer" style="rounded=0;whiteSpace=wrap;html=1;fontStyle=1;fillColor=#fff2cc;strokeColor=#d6b656;" vertex="1" parent="1">
          <mxGeometry x="505" y="160" width="120" height="30" as="geometry" />
        </mxCell>
        <mxCell id="oEzC_7prSdUzx3_McUr0-17" value="CRM" style="image;aspect=fixed;html=1;points=[];align=center;fontSize=12;image=img/lib/azure2/general/Folder_Blank.svg;fontStyle=1" vertex="1" parent="1">
          <mxGeometry x="56.44" y="190" width="49.28" height="40" as="geometry" />
        </mxCell>
        <mxCell id="oEzC_7prSdUzx3_McUr0-18" value="" style="image;aspect=fixed;html=1;points=[];align=center;fontSize=12;image=img/lib/azure2/general/File.svg;" vertex="1" parent="1">
          <mxGeometry x="100.65" y="210" width="24.35" height="30" as="geometry" />
        </mxCell>
        <mxCell id="oEzC_7prSdUzx3_McUr0-21" value="ERP" style="image;aspect=fixed;html=1;points=[];align=center;fontSize=12;image=img/lib/azure2/general/Folder_Blank.svg;fontStyle=1" vertex="1" parent="1">
          <mxGeometry x="59.6" y="280" width="49.28" height="40" as="geometry" />
        </mxCell>
        <mxCell id="oEzC_7prSdUzx3_McUr0-22" value="" style="image;aspect=fixed;html=1;points=[];align=center;fontSize=12;image=img/lib/azure2/general/File.svg;" vertex="1" parent="1">
          <mxGeometry x="100.65" y="300" width="24.35" height="30" as="geometry" />
        </mxCell>
        <mxCell id="oEzC_7prSdUzx3_McUr0-25" value="&lt;b&gt;Object Type&lt;/b&gt;: Tables&lt;div&gt;&lt;br&gt;&lt;div&gt;&lt;br&gt;&lt;/div&gt;&lt;/div&gt;" style="text;html=1;align=center;verticalAlign=middle;whiteSpace=wrap;rounded=0;fontSize=11;" vertex="1" parent="1">
          <mxGeometry x="189.23999999999998" y="330" width="121.52" height="50" as="geometry" />
        </mxCell>
        <mxCell id="oEzC_7prSdUzx3_McUr0-28" value="" style="endArrow=none;html=1;rounded=0;entryX=0.998;entryY=0.574;entryDx=0;entryDy=0;entryPerimeter=0;exitX=0.048;exitY=0.574;exitDx=0;exitDy=0;exitPerimeter=0;" edge="1" parent="1" source="oEzC_7prSdUzx3_McUr0-1" target="oEzC_7prSdUzx3_McUr0-1">
          <mxGeometry width="50" height="50" relative="1" as="geometry">
            <mxPoint x="50.64999999999998" y="385" as="sourcePoint" />
            <mxPoint x="100.64999999999998" y="335" as="targetPoint" />
            <Array as="points" />
          </mxGeometry>
        </mxCell>
        <mxCell id="oEzC_7prSdUzx3_McUr0-31" value="" style="strokeWidth=2;html=1;shape=mxgraph.flowchart.database;whiteSpace=wrap;fillColor=#f5f5f5;fontColor=#333333;strokeColor=#666666;" vertex="1" parent="1">
          <mxGeometry x="380" y="230" width="40" height="50" as="geometry" />
        </mxCell>
        <mxCell id="oEzC_7prSdUzx3_McUr0-32" value="" style="strokeWidth=2;html=1;shape=mxgraph.flowchart.database;whiteSpace=wrap;fillColor=#ffe6cc;strokeColor=#d79b00;" vertex="1" parent="1">
          <mxGeometry x="230" y="230" width="40" height="50" as="geometry" />
        </mxCell>
        <mxCell id="oEzC_7prSdUzx3_McUr0-33" value="" style="strokeWidth=2;html=1;shape=mxgraph.flowchart.database;whiteSpace=wrap;fillColor=#fff2cc;strokeColor=#d6b656;" vertex="1" parent="1">
          <mxGeometry x="545" y="230" width="40" height="50" as="geometry" />
        </mxCell>
        <mxCell id="oEzC_7prSdUzx3_McUr0-35" value="" style="shape=flexArrow;endArrow=classic;html=1;rounded=0;width=4;endSize=6.32;endWidth=17;fillColor=#b1ddf0;strokeColor=#10739e;" edge="1" parent="1">
          <mxGeometry width="50" height="50" relative="1" as="geometry">
            <mxPoint x="130" y="254.5" as="sourcePoint" />
            <mxPoint x="190" y="254.5" as="targetPoint" />
            <Array as="points">
              <mxPoint x="160" y="254.5" />
            </Array>
          </mxGeometry>
        </mxCell>
        <mxCell id="oEzC_7prSdUzx3_McUr0-36" value="" style="shape=flexArrow;endArrow=classic;html=1;rounded=0;width=4;endSize=6.32;endWidth=17;fillColor=#b1ddf0;strokeColor=#10739e;" edge="1" parent="1">
          <mxGeometry width="50" height="50" relative="1" as="geometry">
            <mxPoint x="290" y="254.5" as="sourcePoint" />
            <mxPoint x="350" y="254.5" as="targetPoint" />
            <Array as="points">
              <mxPoint x="320" y="254.5" />
            </Array>
          </mxGeometry>
        </mxCell>
        <mxCell id="oEzC_7prSdUzx3_McUr0-39" value="" style="shape=flexArrow;endArrow=classic;html=1;rounded=0;width=4;endSize=6.32;endWidth=17;fillColor=#b1ddf0;strokeColor=#10739e;" edge="1" parent="1">
          <mxGeometry width="50" height="50" relative="1" as="geometry">
            <mxPoint x="445" y="254.5" as="sourcePoint" />
            <mxPoint x="505" y="254.5" as="targetPoint" />
            <Array as="points" />
          </mxGeometry>
        </mxCell>
        <mxCell id="oEzC_7prSdUzx3_McUr0-41" value="" style="shape=flexArrow;endArrow=classic;html=1;rounded=0;width=4;endSize=6.32;endWidth=17;fillColor=#b1ddf0;strokeColor=#10739e;" edge="1" parent="1">
          <mxGeometry width="50" height="50" relative="1" as="geometry">
            <mxPoint x="625" y="254.5" as="sourcePoint" />
            <mxPoint x="685" y="254.5" as="targetPoint" />
            <Array as="points">
              <mxPoint x="655" y="254.5" />
            </Array>
          </mxGeometry>
        </mxCell>
        <mxCell id="oEzC_7prSdUzx3_McUr0-42" value="Raw Data" style="text;html=1;align=center;verticalAlign=middle;whiteSpace=wrap;rounded=0;" vertex="1" parent="1">
          <mxGeometry x="210" y="285" width="60" height="30" as="geometry" />
        </mxCell>
        <mxCell id="oEzC_7prSdUzx3_McUr0-43" value="Cleaned, Standardized data" style="text;html=1;align=center;verticalAlign=middle;whiteSpace=wrap;rounded=0;" vertex="1" parent="1">
          <mxGeometry x="350" y="285" width="110" height="30" as="geometry" />
        </mxCell>
        <mxCell id="oEzC_7prSdUzx3_McUr0-44" value="Business-Ready Data" style="text;html=1;align=center;verticalAlign=middle;whiteSpace=wrap;rounded=0;" vertex="1" parent="1">
          <mxGeometry x="505" y="285" width="120" height="30" as="geometry" />
        </mxCell>
        <mxCell id="oEzC_7prSdUzx3_McUr0-47" value="" style="shadow=0;dashed=0;html=1;strokeColor=none;fillColor=#EF8F21;labelPosition=center;verticalLabelPosition=bottom;verticalAlign=top;align=center;outlineConnect=0;shape=mxgraph.veeam.reporting;" vertex="1" parent="1">
          <mxGeometry x="775" y="199.2" width="30" height="44.8" as="geometry" />
        </mxCell>
        <mxCell id="oEzC_7prSdUzx3_McUr0-48" value="" style="verticalLabelPosition=bottom;html=1;verticalAlign=top;align=center;strokeColor=none;fillColor=#00BEF2;shape=mxgraph.azure.sql_reporting;" vertex="1" parent="1">
          <mxGeometry x="742.5" y="315" width="40" height="50" as="geometry" />
        </mxCell>
        <mxCell id="oEzC_7prSdUzx3_McUr0-49" value="BI &amp;amp; Reporting" style="text;html=1;align=center;verticalAlign=middle;whiteSpace=wrap;rounded=0;" vertex="1" parent="1">
          <mxGeometry x="733.75" y="260" width="85" height="20" as="geometry" />
        </mxCell>
        <mxCell id="oEzC_7prSdUzx3_McUr0-50" value="Ad-hoc SQL Queries" style="text;html=1;align=center;verticalAlign=middle;whiteSpace=wrap;rounded=0;" vertex="1" parent="1">
          <mxGeometry x="720" y="380" width="85" height="20" as="geometry" />
        </mxCell>
        <mxCell id="oEzC_7prSdUzx3_McUr0-51" value="" style="points=[];aspect=fixed;html=1;align=center;shadow=0;dashed=0;fillColor=#FF6A00;strokeColor=none;shape=mxgraph.alibaba_cloud.machine_learning;" vertex="1" parent="1">
          <mxGeometry x="737.6" y="444.95" width="49.8" height="50.099999999999994" as="geometry" />
        </mxCell>
        <mxCell id="oEzC_7prSdUzx3_McUr0-52" value="Machine Learning" style="text;html=1;align=center;verticalAlign=middle;whiteSpace=wrap;rounded=0;" vertex="1" parent="1">
          <mxGeometry x="716.25" y="525" width="102.5" height="20" as="geometry" />
        </mxCell>
        <mxCell id="oEzC_7prSdUzx3_McUr0-53" value="" style="image;aspect=fixed;html=1;points=[];align=center;fontSize=12;image=img/lib/azure2/power_platform/PowerBI.svg;" vertex="1" parent="1">
          <mxGeometry x="724" y="176" width="51" height="68" as="geometry" />
        </mxCell>
        <mxCell id="oEzC_7prSdUzx3_McUr0-54" value="SQL Server Architecture" style="text;html=1;align=center;verticalAlign=middle;rounded=0;fontSize=30;fontStyle=1;fillColor=#b1ddf0;strokeColor=#10739e;" vertex="1" parent="1">
          <mxGeometry x="255" y="50" width="375" height="30" as="geometry" />
        </mxCell>
        <mxCell id="oEzC_7prSdUzx3_McUr0-55" value="" style="image;aspect=fixed;perimeter=ellipsePerimeter;html=1;align=center;shadow=0;dashed=0;spacingTop=3;image=img/lib/active_directory/sql_server.svg;" vertex="1" parent="1">
          <mxGeometry x="204.24" y="24.08" width="50.76" height="65.92" as="geometry" />
        </mxCell>
        <mxCell id="oEzC_7prSdUzx3_McUr0-56" value="" style="endArrow=none;html=1;rounded=0;entryX=0.998;entryY=0.574;entryDx=0;entryDy=0;entryPerimeter=0;exitX=0.048;exitY=0.574;exitDx=0;exitDy=0;exitPerimeter=0;" edge="1" parent="1">
          <mxGeometry width="50" height="50" relative="1" as="geometry">
            <mxPoint x="190" y="320" as="sourcePoint" />
            <mxPoint x="310" y="320" as="targetPoint" />
            <Array as="points" />
          </mxGeometry>
        </mxCell>
        <mxCell id="oEzC_7prSdUzx3_McUr0-59" value="" style="endArrow=none;html=1;rounded=0;exitX=0.048;exitY=0.574;exitDx=0;exitDy=0;exitPerimeter=0;" edge="1" parent="1">
          <mxGeometry width="50" height="50" relative="1" as="geometry">
            <mxPoint x="355" y="320" as="sourcePoint" />
            <mxPoint x="460" y="320" as="targetPoint" />
            <Array as="points" />
          </mxGeometry>
        </mxCell>
        <mxCell id="oEzC_7prSdUzx3_McUr0-60" value="" style="endArrow=none;html=1;rounded=0;entryX=0.998;entryY=0.574;entryDx=0;entryDy=0;entryPerimeter=0;exitX=0.048;exitY=0.574;exitDx=0;exitDy=0;exitPerimeter=0;" edge="1" parent="1">
          <mxGeometry width="50" height="50" relative="1" as="geometry">
            <mxPoint x="510" y="320" as="sourcePoint" />
            <mxPoint x="630" y="320" as="targetPoint" />
            <Array as="points" />
          </mxGeometry>
        </mxCell>
        <mxCell id="oEzC_7prSdUzx3_McUr0-61" value="Text" style="text;html=1;align=center;verticalAlign=middle;whiteSpace=wrap;rounded=0;" vertex="1" parent="1">
          <mxGeometry x="410" y="280" width="60" height="30" as="geometry" />
        </mxCell>
        <mxCell id="oEzC_7prSdUzx3_McUr0-65" value="&lt;b&gt;&amp;nbsp; &amp;nbsp; Load:&lt;/b&gt;&amp;nbsp;&lt;div&gt;&lt;div&gt;&lt;ul&gt;&lt;li&gt;&amp;nbsp;Batch Processing&lt;/li&gt;&lt;li&gt;&lt;span style=&quot;background-color: transparent; color: light-dark(rgb(0, 0, 0), rgb(255, 255, 255));&quot;&gt;&amp;nbsp;Full Load&lt;/span&gt;&lt;/li&gt;&lt;li&gt;&amp;nbsp;Truncate &amp;amp; Insert&lt;/li&gt;&lt;/ul&gt;&lt;/div&gt;&lt;div&gt;&lt;b&gt;&amp;nbsp; &amp;nbsp;Transformations:&lt;/b&gt;&amp;nbsp;&lt;/div&gt;&lt;div&gt;&lt;ul&gt;&lt;li&gt;&lt;span style=&quot;background-color: transparent; color: light-dark(rgb(0, 0, 0), rgb(255, 255, 255));&quot;&gt;Data cleansing&lt;/span&gt;&lt;/li&gt;&lt;li&gt;Data Standardization&lt;/li&gt;&lt;li&gt;Data Normalization&lt;/li&gt;&lt;li&gt;Derived Columns&lt;/li&gt;&lt;li&gt;Data Enrichment&lt;/li&gt;&lt;/ul&gt;&lt;/div&gt;&lt;div&gt;&lt;b&gt;&amp;nbsp; &amp;nbsp; Data Model&lt;/b&gt;:None (as-is)&lt;/div&gt;&lt;div&gt;&lt;br&gt;&lt;/div&gt;&lt;div&gt;&lt;br&gt;&lt;/div&gt;&lt;div&gt;&lt;br&gt;&lt;/div&gt;&lt;div&gt;&lt;br&gt;&lt;/div&gt;&lt;div&gt;&lt;br&gt;&lt;/div&gt;&lt;div&gt;&lt;br&gt;&lt;/div&gt;&lt;div&gt;&lt;br&gt;&lt;/div&gt;&lt;div&gt;&amp;nbsp;&amp;nbsp;&lt;/div&gt;&lt;/div&gt;" style="text;html=1;align=left;verticalAlign=middle;whiteSpace=wrap;rounded=0;" vertex="1" parent="1">
          <mxGeometry x="325" y="470" width="160" height="130" as="geometry" />
        </mxCell>
        <mxCell id="oEzC_7prSdUzx3_McUr0-66" value="&lt;div style=&quot;font-size: 11px;&quot;&gt;&lt;div&gt;&lt;span style=&quot;background-color: transparent; color: light-dark(rgb(0, 0, 0), rgb(255, 255, 255));&quot;&gt;&lt;b&gt;Load:&lt;/b&gt;&lt;/span&gt;&lt;/div&gt;&lt;div&gt;&lt;ul&gt;&lt;li&gt;Batch Processing&lt;span style=&quot;background-color: transparent; color: light-dark(rgb(0, 0, 0), rgb(255, 255, 255));&quot;&gt;&amp;nbsp;&lt;/span&gt;&lt;/li&gt;&lt;li&gt;&lt;span style=&quot;background-color: transparent; color: light-dark(rgb(0, 0, 0), rgb(255, 255, 255));&quot;&gt;Full Load&lt;/span&gt;&lt;/li&gt;&lt;li&gt;Truncate &amp;amp; Insert&lt;/li&gt;&lt;/ul&gt;&lt;/div&gt;&lt;/div&gt;&lt;div style=&quot;font-size: 11px;&quot;&gt;&lt;br&gt;&lt;/div&gt;&lt;div style=&quot;font-size: 11px;&quot;&gt;&lt;b&gt;No Transformations&lt;/b&gt;&lt;/div&gt;&lt;div style=&quot;font-size: 11px;&quot;&gt;&lt;br&gt;&lt;/div&gt;&lt;div style=&quot;font-size: 11px;&quot;&gt;&lt;b&gt;Data Model&lt;/b&gt;:None (as-is)&lt;/div&gt;" style="text;html=1;align=left;verticalAlign=middle;whiteSpace=wrap;rounded=0;" vertex="1" parent="1">
          <mxGeometry x="189.24" y="360" width="130.76" height="150" as="geometry" />
        </mxCell>
        <mxCell id="oEzC_7prSdUzx3_McUr0-68" value="&lt;b&gt;Object Type&lt;/b&gt;: Tables&lt;div&gt;&lt;br&gt;&lt;div&gt;&lt;br&gt;&lt;/div&gt;&lt;/div&gt;" style="text;html=1;align=center;verticalAlign=middle;whiteSpace=wrap;rounded=0;fontSize=11;" vertex="1" parent="1">
          <mxGeometry x="344.24" y="330" width="121.52" height="50" as="geometry" />
        </mxCell>
        <mxCell id="oEzC_7prSdUzx3_McUr0-69" value="&lt;b&gt;Object Type&lt;/b&gt;: Views&lt;div&gt;&lt;br&gt;&lt;div&gt;&lt;br&gt;&lt;/div&gt;&lt;/div&gt;" style="text;html=1;align=center;verticalAlign=middle;whiteSpace=wrap;rounded=0;fontSize=11;" vertex="1" parent="1">
          <mxGeometry x="505" y="325" width="121.52" height="60" as="geometry" />
        </mxCell>
        <mxCell id="oEzC_7prSdUzx3_McUr0-71" value="&lt;b&gt;&amp;nbsp; &amp;nbsp; No Load&lt;/b&gt;&lt;div&gt;&lt;br&gt;&lt;/div&gt;&lt;div&gt;&lt;b&gt;&amp;nbsp; Transformations:&lt;/b&gt;&lt;/div&gt;&lt;div&gt;&lt;ul&gt;&lt;li&gt;Data Integrations&lt;/li&gt;&lt;li&gt;&lt;span style=&quot;background-color: transparent; color: light-dark(rgb(0, 0, 0), rgb(255, 255, 255));&quot;&gt;Aggregations&lt;/span&gt;&lt;/li&gt;&lt;li&gt;&lt;span style=&quot;background-color: transparent; color: light-dark(rgb(0, 0, 0), rgb(255, 255, 255));&quot;&gt;Business Logics&lt;/span&gt;&lt;/li&gt;&lt;/ul&gt;&lt;/div&gt;&lt;div&gt;&lt;span style=&quot;background-color: transparent; color: light-dark(rgb(0, 0, 0), rgb(255, 255, 255));&quot;&gt;&lt;b&gt;&amp;nbsp; Data Model:&amp;nbsp;&lt;/b&gt;&lt;/span&gt;&lt;/div&gt;&lt;div&gt;&lt;ul&gt;&lt;li&gt;&lt;span style=&quot;background-color: transparent; color: light-dark(rgb(0, 0, 0), rgb(255, 255, 255));&quot;&gt;Star Schema&lt;/span&gt;&lt;/li&gt;&lt;li&gt;&lt;span style=&quot;background-color: transparent; color: light-dark(rgb(0, 0, 0), rgb(255, 255, 255));&quot;&gt;Flat Table&lt;/span&gt;&lt;/li&gt;&lt;li&gt;&lt;span style=&quot;background-color: transparent; color: light-dark(rgb(0, 0, 0), rgb(255, 255, 255));&quot;&gt;Aggregated Table&lt;/span&gt;&lt;/li&gt;&lt;/ul&gt;&lt;/div&gt;" style="text;html=1;align=left;verticalAlign=middle;whiteSpace=wrap;rounded=0;" vertex="1" parent="1">
          <mxGeometry x="490" y="370" width="140" height="200" as="geometry" />
        </mxCell>
      </root>
    </mxGraphModel>
  </diagram>
</mxfile>
